<?xml version="1.0" standalone="no"?>
<!DOCTYPE svg PUBLIC "-//W3C//DTD SVG 20010904//EN"
 "http://www.w3.org/TR/2001/REC-SVG-20010904/DTD/svg10.dtd">
<svg version="1.0" xmlns="http://www.w3.org/2000/svg"
 width="90.000000pt" height="90.000000pt" viewBox="0 0 90.000000 90.000000"
 preserveAspectRatio="xMidYMid meet">

<g transform="translate(0.000000,90.000000) scale(0.100000,-0.100000)"
fill="#000000" stroke="none">
<path d="M250 716 c-159 -54 -185 -66 -188 -84 -2 -13 3 -25 12 -28 8 -3 97
21 196 54 l180 60 180 -60 c99 -33 188 -57 196 -54 9 3 14 15 12 28 -3 18 -29
30 -193 85 -104 35 -194 63 -200 62 -5 0 -93 -29 -195 -63z"/>
<path d="M250 506 c-169 -57 -185 -65 -185 -86 0 -21 16 -29 193 -88 l192 -64
165 55 165 55 0 -83 c0 -61 -5 -92 -17 -114 -17 -29 -17 -31 10 -85 15 -31 31
-56 37 -56 6 0 22 25 37 55 27 54 27 56 10 88 -12 24 -17 62 -19 146 l-3 114
-190 64 c-104 34 -194 63 -200 62 -5 0 -93 -29 -195 -63z"/>
<path d="M242 223 c3 -46 5 -49 50 -71 91 -45 293 -36 350 15 18 16 27 103 11
103 -4 0 -51 -14 -105 -32 l-98 -32 -98 32 c-54 18 -101 32 -106 32 -4 0 -6
-21 -4 -47z"/>
</g>
</svg>
