<?xml version="1.0" standalone="no"?>
<!DOCTYPE svg PUBLIC "-//W3C//DTD SVG 20010904//EN"
 "http://www.w3.org/TR/2001/REC-SVG-20010904/DTD/svg10.dtd">
<svg version="1.0" xmlns="http://www.w3.org/2000/svg"
 width="809.000000pt" height="376.000000pt" viewBox="0 0 809.000000 376.000000"
 preserveAspectRatio="xMidYMid meet">

<g transform="translate(0.000000,376.000000) scale(0.100000,-0.100000)"
fill="#000000" stroke="none">
<path d="M1800 3240 c0 -18 -7 -20 -60 -20 -53 0 -60 -2 -60 -20 0 -18 -7 -20
-65 -20 -58 0 -65 -2 -65 -20 0 -18 -7 -20 -60 -20 -57 0 -60 -1 -60 -25 0
-24 -2 -25 -65 -25 -58 0 -65 -2 -65 -20 0 -18 -7 -20 -60 -20 -53 0 -60 -2
-60 -20 0 -18 -7 -20 -65 -20 -58 0 -65 -2 -65 -20 0 -18 -7 -20 -60 -20 -53
0 -60 -2 -60 -20 0 -18 -7 -20 -65 -20 -58 0 -65 -2 -65 -20 0 -18 -7 -20 -60
-20 -57 0 -60 -1 -60 -25 0 -24 -2 -25 -65 -25 -58 0 -65 -2 -65 -20 0 -18 -7
-20 -60 -20 -53 0 -60 -2 -60 -20 0 -18 -7 -20 -65 -20 -58 0 -65 -2 -65 -20
0 -13 -7 -20 -20 -20 -18 0 -20 -7 -20 -85 0 -78 2 -85 20 -85 13 0 20 -7 20
-20 0 -18 7 -20 85 -20 78 0 85 2 85 20 0 18 7 20 60 20 53 0 60 2 60 20 0 18
7 20 65 20 63 0 65 1 65 25 0 24 3 25 60 25 53 0 60 2 60 20 0 18 7 20 65 20
58 0 65 2 65 20 0 18 7 20 60 20 53 0 60 2 60 20 0 18 7 20 65 20 58 0 65 2
65 20 0 18 7 20 60 20 53 0 60 2 60 20 0 18 7 20 65 20 63 0 65 1 65 25 0 24
3 25 60 25 53 0 60 2 60 20 0 18 7 20 65 20 58 0 65 2 65 20 0 18 7 20 60 20
53 0 60 2 60 20 0 17 7 20 45 20 38 0 45 -3 45 -20 0 -18 7 -20 60 -20 53 0
60 -2 60 -20 0 -18 7 -20 65 -20 58 0 65 -2 65 -20 0 -18 7 -20 60 -20 57 0
60 -1 60 -25 0 -24 2 -25 65 -25 58 0 65 -2 65 -20 0 -18 7 -20 60 -20 53 0
60 -2 60 -20 0 -18 7 -20 65 -20 58 0 65 -2 65 -20 0 -18 7 -20 60 -20 53 0
60 -2 60 -20 0 -18 7 -20 65 -20 58 0 65 -2 65 -20 0 -18 7 -20 60 -20 57 0
60 -1 60 -25 0 -24 2 -25 65 -25 58 0 65 -2 65 -20 0 -18 7 -20 60 -20 53 0
60 -2 60 -20 0 -18 7 -20 85 -20 78 0 85 2 85 20 0 13 7 20 20 20 18 0 20 7
20 85 0 78 -2 85 -20 85 -13 0 -20 7 -20 20 0 18 -7 20 -65 20 -58 0 -65 2
-65 20 0 18 -7 20 -60 20 -53 0 -60 2 -60 20 0 18 -7 20 -65 20 -63 0 -65 1
-65 25 0 24 -3 25 -60 25 -53 0 -60 2 -60 20 0 18 -7 20 -65 20 -58 0 -65 2
-65 20 0 18 -7 20 -60 20 -53 0 -60 2 -60 20 0 18 -7 20 -65 20 -58 0 -65 2
-65 20 0 18 -7 20 -60 20 -53 0 -60 2 -60 20 0 18 -7 20 -65 20 -63 0 -65 1
-65 25 0 24 -3 25 -60 25 -53 0 -60 2 -60 20 0 18 -7 20 -65 20 -58 0 -65 2
-65 20 0 18 -7 20 -60 20 -53 0 -60 2 -60 20 0 18 -7 20 -85 20 -78 0 -85 -2
-85 -20z"/>
<path d="M6982 2490 c-82 -22 -118 -41 -210 -113 l-62 -49 87 -96 c48 -54 90
-98 94 -100 3 -1 34 16 68 40 57 39 68 43 135 46 53 3 81 0 104 -12 77 -40
114 -126 92 -213 -25 -102 -86 -144 -220 -152 l-85 -6 -3 -137 -3 -138 68 0
c225 0 323 -62 331 -210 5 -88 -9 -129 -63 -179 -52 -48 -107 -65 -195 -59
-83 6 -139 35 -210 107 l-55 57 -119 -88 -118 -87 91 -94 c142 -147 244 -190
446 -190 90 1 124 5 187 26 231 74 363 269 345 507 -13 169 -88 288 -233 370
l-41 24 47 37 c93 74 123 127 140 249 44 322 -265 552 -618 460z"/>
<path d="M4045 2459 c-3 -8 -4 -372 -3 -809 l3 -795 290 1 c323 1 379 8 487
66 116 62 206 195 228 337 29 184 -56 362 -217 453 l-54 31 41 39 c88 85 127
184 117 301 -15 181 -147 319 -345 363 -97 22 -539 32 -547 13z m505 -311 c57
-30 82 -65 87 -125 6 -68 -27 -129 -86 -160 -34 -18 -60 -23 -118 -23 l-73 0
0 165 0 165 73 0 c56 0 83 -5 117 -22z m-11 -598 c105 -18 164 -57 196 -132
35 -86 7 -186 -64 -226 -44 -25 -140 -42 -238 -42 l-73 0 0 205 0 205 58 0
c31 0 86 -5 121 -10z"/>
<path d="M5244 2418 c13 -29 139 -302 279 -606 141 -304 259 -561 262 -572 7
-22 -43 -83 -86 -106 -69 -35 -168 -7 -262 77 l-49 42 -101 -102 -102 -102 60
-56 c135 -127 229 -168 385 -168 98 0 110 2 173 32 38 18 86 47 107 63 55 43
120 133 168 231 39 81 492 1284 492 1308 0 8 -42 11 -156 9 l-156 -3 -152
-437 c-83 -240 -153 -439 -156 -441 -3 -3 -89 194 -191 437 l-186 441 -176 3
-176 2 23 -52z"/>
<path d="M1800 2365 c0 -24 -3 -25 -60 -25 -53 0 -60 -2 -60 -20 0 -18 -7 -20
-65 -20 -58 0 -65 -2 -65 -20 0 -18 -7 -20 -60 -20 -53 0 -60 -2 -60 -20 0
-18 -7 -20 -65 -20 -58 0 -65 -2 -65 -20 0 -18 -7 -20 -60 -20 -53 0 -60 -2
-60 -20 0 -18 -7 -20 -65 -20 -63 0 -65 -1 -65 -25 0 -24 -3 -25 -60 -25 -53
0 -60 -2 -60 -20 0 -18 -7 -20 -65 -20 -58 0 -65 -2 -65 -20 0 -18 -7 -20 -60
-20 -53 0 -60 -2 -60 -20 0 -18 -7 -20 -65 -20 -58 0 -65 -2 -65 -20 0 -18 -7
-20 -60 -20 -53 0 -60 -2 -60 -20 0 -18 -7 -20 -65 -20 -63 0 -65 -1 -65 -25
0 -18 -5 -25 -20 -25 -18 0 -20 -7 -20 -80 0 -73 2 -80 20 -80 13 0 20 -7 20
-20 0 -18 7 -20 65 -20 63 0 65 -1 65 -25 0 -24 3 -25 60 -25 53 0 60 -2 60
-20 0 -18 7 -20 65 -20 58 0 65 -2 65 -20 0 -18 7 -20 60 -20 53 0 60 -2 60
-20 0 -18 7 -20 65 -20 58 0 65 -2 65 -20 0 -18 7 -20 60 -20 53 0 60 -2 60
-20 0 -18 7 -20 65 -20 63 0 65 -1 65 -25 0 -24 3 -25 60 -25 53 0 60 -2 60
-20 0 -18 7 -20 65 -20 58 0 65 -2 65 -20 0 -18 7 -20 60 -20 53 0 60 -2 60
-20 0 -18 7 -20 65 -20 58 0 65 -2 65 -20 0 -18 7 -20 60 -20 53 0 60 -2 60
-20 0 -18 7 -20 85 -20 78 0 85 2 85 20 0 18 7 20 60 20 53 0 60 2 60 20 0 18
7 20 65 20 58 0 65 2 65 20 0 18 7 20 60 20 53 0 60 2 60 20 0 18 7 20 65 20
58 0 65 2 65 20 0 18 7 20 60 20 57 0 60 1 60 25 0 24 2 25 65 25 58 0 65 2
65 20 0 18 7 20 60 20 53 0 60 2 60 20 0 18 7 20 65 20 58 0 65 2 65 20 0 18
7 20 60 20 53 0 60 2 60 20 0 18 7 20 65 20 58 0 65 2 65 20 0 13 7 20 20 20
20 0 20 -7 20 -375 0 -368 0 -375 -20 -375 -13 0 -20 -7 -20 -20 0 -13 -7 -20
-20 -20 -17 0 -20 -7 -20 -40 0 -36 -2 -40 -25 -40 -25 0 -25 -1 -25 -85 0
-84 0 -85 25 -85 23 0 25 -4 25 -40 0 -33 3 -40 20 -40 17 0 20 -7 20 -40 0
-33 3 -40 20 -40 17 0 20 -7 20 -45 0 -38 3 -45 20 -45 17 0 20 -7 20 -40 0
-33 3 -40 20 -40 13 0 20 -7 20 -20 0 -17 7 -20 45 -20 38 0 45 3 45 20 0 13
7 20 20 20 17 0 20 7 20 40 0 33 3 40 20 40 17 0 20 7 20 45 0 38 3 45 20 45
17 0 20 7 20 40 0 33 3 40 20 40 17 0 20 7 20 40 0 33 3 40 20 40 18 0 20 7
20 85 0 78 -2 85 -20 85 -17 0 -20 7 -20 40 0 33 -3 40 -20 40 -13 0 -20 7
-20 20 0 13 -7 20 -20 20 -20 0 -20 7 -20 500 0 493 0 500 -20 500 -15 0 -20
7 -20 25 0 24 -2 25 -65 25 -58 0 -65 2 -65 20 0 18 -7 20 -60 20 -53 0 -60 2
-60 20 0 18 -7 20 -65 20 -58 0 -65 2 -65 20 0 18 -7 20 -60 20 -53 0 -60 2
-60 20 0 18 -7 20 -65 20 -58 0 -65 2 -65 20 0 18 -7 20 -60 20 -57 0 -60 1
-60 25 0 24 -2 25 -65 25 -58 0 -65 2 -65 20 0 18 -7 20 -60 20 -53 0 -60 2
-60 20 0 18 -7 20 -65 20 -58 0 -65 2 -65 20 0 18 -7 20 -60 20 -53 0 -60 2
-60 20 0 18 -7 20 -65 20 -58 0 -65 2 -65 20 0 18 -7 20 -60 20 -57 0 -60 1
-60 25 0 25 -1 25 -85 25 -84 0 -85 0 -85 -25z"/>
<path d="M1010 950 c0 -183 1 -190 20 -190 13 0 20 -7 20 -20 0 -13 7 -20 20
-20 13 0 20 -7 20 -20 0 -17 7 -20 45 -20 38 0 45 -3 45 -20 0 -17 7 -20 40
-20 36 0 40 -2 40 -25 0 -24 3 -25 60 -25 53 0 60 -2 60 -20 0 -19 7 -20 105
-20 98 0 105 -1 105 -20 0 -20 7 -20 295 -20 288 0 295 0 295 20 0 19 7 20
100 20 93 0 100 1 100 20 0 18 7 20 65 20 63 0 65 1 65 25 0 24 3 25 60 25 53
0 60 2 60 20 0 15 7 20 25 20 18 0 25 5 25 20 0 13 7 20 20 20 13 0 20 7 20
20 0 13 7 20 20 20 19 0 20 7 20 190 l0 190 -65 0 c-63 0 -65 -1 -65 -25 0
-24 -3 -25 -60 -25 -53 0 -60 -2 -60 -20 0 -18 -7 -20 -65 -20 -58 0 -65 -2
-65 -20 0 -18 -7 -20 -60 -20 -53 0 -60 -2 -60 -20 0 -18 -7 -20 -65 -20 -58
0 -65 -2 -65 -20 0 -18 -7 -20 -60 -20 -53 0 -60 -2 -60 -20 0 -19 -7 -20
-125 -20 -118 0 -125 1 -125 20 0 18 -7 20 -65 20 -58 0 -65 2 -65 20 0 18 -7
20 -60 20 -53 0 -60 2 -60 20 0 18 -7 20 -65 20 -58 0 -65 2 -65 20 0 18 -7
20 -60 20 -53 0 -60 2 -60 20 0 18 -7 20 -65 20 -63 0 -65 1 -65 25 0 24 -3
25 -60 25 l-60 0 0 -190z"/>
</g>
</svg>
